<svg xmlns="http://www.w3.org/2000/svg" width="57.054" height="57.054" viewBox="0 0 57.054 57.054">
  <path id="fi" d="M10.4,30.777c6.059,0,8.623-4.586,10.891-8.634,2.3-4.113,4.289-7.667,9.485-7.667s7.185,3.554,9.485,7.667c2.268,4.048,4.832,8.634,10.891,8.634H59.3V26.7H51.153c-3.49,0-5.059-2.487-7.335-6.549C41.391,15.809,38.364,10.4,30.777,10.4s-10.61,5.408-13.041,9.752C15.457,24.213,13.889,26.7,10.4,26.7H6.325V2.25H2.25V55.228A4.075,4.075,0,0,0,6.325,59.3H59.3V55.228H55.228V43H51.153V55.228H43v-16.3H38.927v16.3H30.777V30.777H26.7V55.228H18.551v-16.3H14.476v16.3H6.325V30.777Z" transform="translate(-2.25 -2.25)" fill="#fff"/>
</svg>
